<svg xmlns="http://www.w3.org/2000/svg" font-family="ConsolasFallback,Consolas,monospace" width="420px" height="150px" font-size="11px">
<rect width="420px" height="150px" rx="15" fill="#161b22"/>
<text x="22" y="20" font-size="13" fill="#e6edf3">Languages</text>
<path d="M78 84L78.0000 29.0000A55 55 0 0 1 126.1709 110.5436Z" fill="#3178c6" stroke="#161b22" stroke-width="1"/>
<path d="M78 84L126.1709 110.5436A55 55 0 0 1 74.8605 138.9103Z" fill="#e34c26" stroke="#161b22" stroke-width="1"/>
<path d="M78 84L74.8605 138.9103A55 55 0 0 1 31.1267 112.7731Z" fill="#4F5D95" stroke="#161b22" stroke-width="1"/>
<path d="M78 84L31.1267 112.7731A55 55 0 0 1 23.0083 83.0432Z" fill="#3572A5" stroke="#161b22" stroke-width="1"/>
<path d="M78 84L23.0083 83.0432A55 55 0 0 1 32.1351 53.6452Z" fill="#f7523f" stroke="#161b22" stroke-width="1"/>
<path d="M78 84L32.1351 53.6452A55 55 0 0 1 45.5037 39.6267Z" fill="#663399" stroke="#161b22" stroke-width="1"/>
<path d="M78 84L45.5037 39.6267A55 55 0 0 1 78.0000 29.0000Z" fill="#8b949e" stroke="#161b22" stroke-width="1"/>
<circle cx="78" cy="84" r="30" fill="#161b22"/>
<rect x="155" y="38" width="8" height="8" rx="2" fill="#3178c6"/>
<text x="171" y="46" fill="#e6edf3">TypeScript</text>
<text x="410" y="46" text-anchor="end" fill="#8b98ac">33%</text>
<rect x="155" y="54" width="8" height="8" rx="2" fill="#e34c26"/>
<text x="171" y="62" fill="#e6edf3">HTML</text>
<text x="410" y="62" text-anchor="end" fill="#8b98ac">18%</text>
<rect x="155" y="70" width="8" height="8" rx="2" fill="#4F5D95"/>
<text x="171" y="78" fill="#e6edf3">PHP</text>
<text x="410" y="78" text-anchor="end" fill="#8b98ac">15%</text>
<rect x="155" y="86" width="8" height="8" rx="2" fill="#3572A5"/>
<text x="171" y="94" fill="#e6edf3">Python</text>
<text x="410" y="94" text-anchor="end" fill="#8b98ac">9%</text>
<rect x="155" y="102" width="8" height="8" rx="2" fill="#f7523f"/>
<text x="171" y="110" fill="#e6edf3">Blade</text>
<text x="410" y="110" text-anchor="end" fill="#8b98ac">9%</text>
<rect x="155" y="118" width="8" height="8" rx="2" fill="#663399"/>
<text x="171" y="126" fill="#e6edf3">CSS</text>
<text x="410" y="126" text-anchor="end" fill="#8b98ac">6%</text>
<rect x="155" y="134" width="8" height="8" rx="2" fill="#8b949e"/>
<text x="171" y="142" fill="#e6edf3">Other</text>
<text x="410" y="142" text-anchor="end" fill="#8b98ac">10%</text>
</svg>
